<mxfile host="app.diagrams.net" modified="2024-05-05T17:54:09.915Z" agent="Mozilla/5.0 (Macintosh; Intel Mac OS X 10_15_7) AppleWebKit/605.1.15 (KHTML, like Gecko) Version/16.5.1 Safari/605.1.15" etag="dgdzFc5O55zzQoNixnp0" version="24.3.1" type="github">
  <diagram name="Page-1" id="ttbsJA_tUQX9jRxgmvps">
    <mxGraphModel dx="1247" dy="789" grid="0" gridSize="10" guides="1" tooltips="1" connect="1" arrows="1" fold="1" page="1" pageScale="1" pageWidth="827" pageHeight="1169" background="#000000" math="0" shadow="0">
      <root>
        <mxCell id="0" />
        <mxCell id="1" parent="0" />
        <mxCell id="vXGEJdT2jLosxkehv7pn-48" value="" style="edgeStyle=orthogonalEdgeStyle;rounded=0;orthogonalLoop=1;jettySize=auto;html=1;strokeColor=#FFFFFF;strokeWidth=3;" parent="1" source="vXGEJdT2jLosxkehv7pn-34" target="vXGEJdT2jLosxkehv7pn-35" edge="1">
          <mxGeometry relative="1" as="geometry" />
        </mxCell>
        <mxCell id="vXGEJdT2jLosxkehv7pn-49" value="" style="edgeStyle=orthogonalEdgeStyle;rounded=0;orthogonalLoop=1;jettySize=auto;html=1;strokeColor=#FFFFFF;strokeWidth=3;" parent="1" source="vXGEJdT2jLosxkehv7pn-35" target="vXGEJdT2jLosxkehv7pn-36" edge="1">
          <mxGeometry relative="1" as="geometry" />
        </mxCell>
        <mxCell id="vXGEJdT2jLosxkehv7pn-35" value="Feature Extraction&amp;nbsp;" style="rounded=0;whiteSpace=wrap;html=1;" parent="1" vertex="1">
          <mxGeometry x="354" y="230" width="120" height="60" as="geometry" />
        </mxCell>
        <mxCell id="vXGEJdT2jLosxkehv7pn-75" style="edgeStyle=orthogonalEdgeStyle;rounded=0;orthogonalLoop=1;jettySize=auto;html=1;fontFamily=Helvetica;fontSize=12;fontColor=default;strokeColor=#FFFFFF;strokeWidth=3;" parent="1" source="vXGEJdT2jLosxkehv7pn-36" target="vXGEJdT2jLosxkehv7pn-42" edge="1">
          <mxGeometry relative="1" as="geometry">
            <Array as="points">
              <mxPoint x="764" y="390" />
              <mxPoint x="764" y="760" />
            </Array>
          </mxGeometry>
        </mxCell>
        <mxCell id="vXGEJdT2jLosxkehv7pn-76" value="" style="edgeStyle=orthogonalEdgeStyle;rounded=0;orthogonalLoop=1;jettySize=auto;html=1;fontFamily=Helvetica;fontSize=12;fontColor=default;" parent="1" source="vXGEJdT2jLosxkehv7pn-36" target="vXGEJdT2jLosxkehv7pn-38" edge="1">
          <mxGeometry relative="1" as="geometry" />
        </mxCell>
        <mxCell id="vXGEJdT2jLosxkehv7pn-78" style="edgeStyle=orthogonalEdgeStyle;rounded=0;orthogonalLoop=1;jettySize=auto;html=1;exitX=0.5;exitY=1;exitDx=0;exitDy=0;exitPerimeter=0;entryX=0.5;entryY=0;entryDx=0;entryDy=0;fontFamily=Helvetica;fontSize=12;fontColor=default;strokeColor=#FFFFFF;strokeWidth=3;" parent="1" source="vXGEJdT2jLosxkehv7pn-36" target="vXGEJdT2jLosxkehv7pn-39" edge="1">
          <mxGeometry relative="1" as="geometry" />
        </mxCell>
        <mxCell id="vXGEJdT2jLosxkehv7pn-79" style="edgeStyle=orthogonalEdgeStyle;rounded=0;orthogonalLoop=1;jettySize=auto;html=1;exitX=0.5;exitY=1;exitDx=0;exitDy=0;exitPerimeter=0;entryX=0.5;entryY=0;entryDx=0;entryDy=0;fontFamily=Helvetica;fontSize=12;fontColor=default;strokeColor=#FFFFFF;strokeWidth=3;" parent="1" source="vXGEJdT2jLosxkehv7pn-36" target="vXGEJdT2jLosxkehv7pn-37" edge="1">
          <mxGeometry relative="1" as="geometry">
            <Array as="points">
              <mxPoint x="414" y="468" />
              <mxPoint x="210" y="468" />
            </Array>
          </mxGeometry>
        </mxCell>
        <mxCell id="YkPtpskG_U6--u6SuKd9-2" style="edgeStyle=orthogonalEdgeStyle;rounded=0;orthogonalLoop=1;jettySize=auto;html=1;fontFamily=Helvetica;fontSize=12;fontColor=default;strokeColor=#FFFFFF;strokeWidth=3;" edge="1" parent="1" source="vXGEJdT2jLosxkehv7pn-36" target="vXGEJdT2jLosxkehv7pn-38">
          <mxGeometry relative="1" as="geometry" />
        </mxCell>
        <mxCell id="vXGEJdT2jLosxkehv7pn-36" value="Comprehensive&lt;div&gt;Database&lt;/div&gt;" style="shape=cylinder3;whiteSpace=wrap;html=1;boundedLbl=1;backgroundOutline=1;size=15;" parent="1" vertex="1">
          <mxGeometry x="363" y="346" width="102" height="100" as="geometry" />
        </mxCell>
        <mxCell id="vXGEJdT2jLosxkehv7pn-67" style="edgeStyle=orthogonalEdgeStyle;rounded=0;orthogonalLoop=1;jettySize=auto;html=1;fontFamily=Helvetica;fontSize=12;fontColor=default;entryX=0;entryY=0.5;entryDx=0;entryDy=0;strokeColor=#FFFFFF;strokeWidth=3;" parent="1" source="vXGEJdT2jLosxkehv7pn-37" target="vXGEJdT2jLosxkehv7pn-40" edge="1">
          <mxGeometry relative="1" as="geometry">
            <mxPoint x="210" y="658" as="targetPoint" />
          </mxGeometry>
        </mxCell>
        <mxCell id="vXGEJdT2jLosxkehv7pn-37" value="Previous User&lt;div&gt;Experience&amp;nbsp;&lt;/div&gt;" style="rounded=0;whiteSpace=wrap;html=1;" parent="1" vertex="1">
          <mxGeometry x="150" y="490" width="120" height="60" as="geometry" />
        </mxCell>
        <mxCell id="vXGEJdT2jLosxkehv7pn-51" value="" style="edgeStyle=orthogonalEdgeStyle;rounded=0;orthogonalLoop=1;jettySize=auto;html=1;strokeColor=#FFFFFF;strokeWidth=3;" parent="1" source="vXGEJdT2jLosxkehv7pn-38" target="vXGEJdT2jLosxkehv7pn-40" edge="1">
          <mxGeometry relative="1" as="geometry" />
        </mxCell>
        <mxCell id="vXGEJdT2jLosxkehv7pn-38" value="Current User Preferences&amp;nbsp;" style="rounded=0;whiteSpace=wrap;html=1;strokeColor=default;" parent="1" vertex="1">
          <mxGeometry x="354" y="490" width="120" height="60" as="geometry" />
        </mxCell>
        <mxCell id="vXGEJdT2jLosxkehv7pn-68" style="edgeStyle=orthogonalEdgeStyle;rounded=0;orthogonalLoop=1;jettySize=auto;html=1;entryX=1;entryY=0.5;entryDx=0;entryDy=0;fontFamily=Helvetica;fontSize=12;fontColor=default;strokeColor=#FFFFFF;strokeWidth=3;" parent="1" source="vXGEJdT2jLosxkehv7pn-39" target="vXGEJdT2jLosxkehv7pn-40" edge="1">
          <mxGeometry relative="1" as="geometry" />
        </mxCell>
        <mxCell id="vXGEJdT2jLosxkehv7pn-39" value="Trending Locations" style="rounded=0;whiteSpace=wrap;html=1;" parent="1" vertex="1">
          <mxGeometry x="560" y="490" width="120" height="60" as="geometry" />
        </mxCell>
        <mxCell id="vXGEJdT2jLosxkehv7pn-52" value="" style="edgeStyle=orthogonalEdgeStyle;rounded=0;orthogonalLoop=1;jettySize=auto;html=1;strokeColor=#FFFFFF;strokeWidth=3;" parent="1" source="vXGEJdT2jLosxkehv7pn-40" target="vXGEJdT2jLosxkehv7pn-41" edge="1">
          <mxGeometry relative="1" as="geometry" />
        </mxCell>
        <mxCell id="vXGEJdT2jLosxkehv7pn-40" value="Weighted Average" style="rounded=1;whiteSpace=wrap;html=1;" parent="1" vertex="1">
          <mxGeometry x="354" y="630" width="120" height="60" as="geometry" />
        </mxCell>
        <mxCell id="vXGEJdT2jLosxkehv7pn-56" value="" style="edgeStyle=orthogonalEdgeStyle;rounded=0;orthogonalLoop=1;jettySize=auto;html=1;fontFamily=Helvetica;fontSize=12;fontColor=default;" parent="1" source="vXGEJdT2jLosxkehv7pn-41" target="vXGEJdT2jLosxkehv7pn-44" edge="1">
          <mxGeometry relative="1" as="geometry" />
        </mxCell>
        <mxCell id="vXGEJdT2jLosxkehv7pn-69" style="edgeStyle=orthogonalEdgeStyle;rounded=0;orthogonalLoop=1;jettySize=auto;html=1;exitX=0.5;exitY=1;exitDx=0;exitDy=0;fontFamily=Helvetica;fontSize=12;fontColor=default;entryX=0;entryY=0;entryDx=0;entryDy=67.5;entryPerimeter=0;strokeColor=#FFFFFF;strokeWidth=3;" parent="1" source="vXGEJdT2jLosxkehv7pn-41" target="vXGEJdT2jLosxkehv7pn-44" edge="1">
          <mxGeometry relative="1" as="geometry" />
        </mxCell>
        <mxCell id="vXGEJdT2jLosxkehv7pn-41" value="Hybrid Model" style="rounded=0;whiteSpace=wrap;html=1;" parent="1" vertex="1">
          <mxGeometry x="354" y="770" width="120" height="60" as="geometry" />
        </mxCell>
        <mxCell id="vXGEJdT2jLosxkehv7pn-42" value="Associative Rule Mining&amp;nbsp;" style="rounded=0;whiteSpace=wrap;html=1;" parent="1" vertex="1">
          <mxGeometry x="550" y="730" width="120" height="60" as="geometry" />
        </mxCell>
        <mxCell id="vXGEJdT2jLosxkehv7pn-74" style="edgeStyle=orthogonalEdgeStyle;rounded=0;orthogonalLoop=1;jettySize=auto;html=1;exitX=0.5;exitY=1;exitDx=0;exitDy=0;exitPerimeter=0;fontFamily=Helvetica;fontSize=12;fontColor=default;strokeColor=#FFFFFF;strokeWidth=3;" parent="1" source="vXGEJdT2jLosxkehv7pn-43" edge="1">
          <mxGeometry relative="1" as="geometry">
            <mxPoint x="277" y="1083" as="targetPoint" />
            <Array as="points">
              <mxPoint x="215" y="1081" />
              <mxPoint x="278" y="1081" />
            </Array>
          </mxGeometry>
        </mxCell>
        <mxCell id="vXGEJdT2jLosxkehv7pn-43" value="Reward (Coupon)Database" style="shape=cylinder3;whiteSpace=wrap;html=1;boundedLbl=1;backgroundOutline=1;size=15;" parent="1" vertex="1">
          <mxGeometry x="160" y="880" width="110" height="100" as="geometry" />
        </mxCell>
        <mxCell id="vXGEJdT2jLosxkehv7pn-72" style="edgeStyle=orthogonalEdgeStyle;rounded=0;orthogonalLoop=1;jettySize=auto;html=1;entryX=0.5;entryY=0;entryDx=0;entryDy=0;fontFamily=Helvetica;fontSize=12;fontColor=default;strokeColor=#FFFFFF;strokeWidth=3;" parent="1" source="vXGEJdT2jLosxkehv7pn-44" target="vXGEJdT2jLosxkehv7pn-47" edge="1">
          <mxGeometry relative="1" as="geometry" />
        </mxCell>
        <mxCell id="vXGEJdT2jLosxkehv7pn-73" style="edgeStyle=orthogonalEdgeStyle;rounded=0;orthogonalLoop=1;jettySize=auto;html=1;entryX=0.5;entryY=0;entryDx=0;entryDy=0;fontFamily=Helvetica;fontSize=12;fontColor=default;strokeColor=#FFFFFF;strokeWidth=3;" parent="1" source="vXGEJdT2jLosxkehv7pn-44" target="vXGEJdT2jLosxkehv7pn-46" edge="1">
          <mxGeometry relative="1" as="geometry">
            <Array as="points">
              <mxPoint x="480" y="1000" />
              <mxPoint x="340" y="1000" />
            </Array>
          </mxGeometry>
        </mxCell>
        <mxCell id="vXGEJdT2jLosxkehv7pn-44" value="Preference Structure&amp;nbsp;" style="shape=cylinder3;whiteSpace=wrap;html=1;boundedLbl=1;backgroundOutline=1;size=15;" parent="1" vertex="1">
          <mxGeometry x="450" y="870" width="110" height="100" as="geometry" />
        </mxCell>
        <mxCell id="vXGEJdT2jLosxkehv7pn-45" value="Offer Database&amp;nbsp;" style="shape=cylinder3;whiteSpace=wrap;html=1;boundedLbl=1;backgroundOutline=1;size=15;" parent="1" vertex="1">
          <mxGeometry x="710" y="850" width="110" height="100" as="geometry" />
        </mxCell>
        <mxCell id="vXGEJdT2jLosxkehv7pn-59" value="" style="edgeStyle=orthogonalEdgeStyle;rounded=0;orthogonalLoop=1;jettySize=auto;html=1;fontFamily=Helvetica;fontSize=12;fontColor=default;" parent="1" source="vXGEJdT2jLosxkehv7pn-46" edge="1">
          <mxGeometry relative="1" as="geometry">
            <mxPoint x="340" y="1190" as="targetPoint" />
          </mxGeometry>
        </mxCell>
        <mxCell id="vXGEJdT2jLosxkehv7pn-46" value="Personalised Rewards" style="rounded=0;whiteSpace=wrap;html=1;" parent="1" vertex="1">
          <mxGeometry x="280" y="1050" width="120" height="60" as="geometry" />
        </mxCell>
        <mxCell id="vXGEJdT2jLosxkehv7pn-47" value="Personalised Notifications" style="rounded=0;whiteSpace=wrap;html=1;" parent="1" vertex="1">
          <mxGeometry x="550" y="1030" width="120" height="60" as="geometry" />
        </mxCell>
        <mxCell id="vXGEJdT2jLosxkehv7pn-34" value="Data Processing" style="rounded=0;whiteSpace=wrap;html=1;fillStyle=solid;strokeColor=none;fillColor=#FFFFFF;gradientColor=none;shadow=1;" parent="1" vertex="1">
          <mxGeometry x="354" y="120" width="120" height="60" as="geometry" />
        </mxCell>
        <mxCell id="vXGEJdT2jLosxkehv7pn-83" style="edgeStyle=orthogonalEdgeStyle;rounded=0;orthogonalLoop=1;jettySize=auto;html=1;fontFamily=Helvetica;fontSize=12;fontColor=default;strokeColor=#FFFFFF;strokeWidth=3;" parent="1" source="vXGEJdT2jLosxkehv7pn-61" target="vXGEJdT2jLosxkehv7pn-34" edge="1">
          <mxGeometry relative="1" as="geometry">
            <Array as="points">
              <mxPoint x="326" y="128" />
            </Array>
          </mxGeometry>
        </mxCell>
        <mxCell id="vXGEJdT2jLosxkehv7pn-61" value="Budget" style="text;html=1;align=center;verticalAlign=middle;resizable=0;points=[];autosize=1;strokeColor=none;fillColor=none;fontFamily=Helvetica;fontSize=12;fontColor=#FFFFFF;" parent="1" vertex="1">
          <mxGeometry x="298" y="48" width="56" height="26" as="geometry" />
        </mxCell>
        <mxCell id="vXGEJdT2jLosxkehv7pn-84" style="edgeStyle=orthogonalEdgeStyle;rounded=0;orthogonalLoop=1;jettySize=auto;html=1;entryX=0.75;entryY=0;entryDx=0;entryDy=0;fontFamily=Helvetica;fontSize=12;fontColor=default;strokeColor=#FFFFFF;strokeWidth=3;" parent="1" source="vXGEJdT2jLosxkehv7pn-62" target="vXGEJdT2jLosxkehv7pn-34" edge="1">
          <mxGeometry relative="1" as="geometry" />
        </mxCell>
        <mxCell id="vXGEJdT2jLosxkehv7pn-62" value="&lt;font color=&quot;#ffffff&quot;&gt;No. of People&lt;/font&gt;" style="text;html=1;align=center;verticalAlign=middle;resizable=0;points=[];autosize=1;strokeColor=none;fillColor=none;fontFamily=Helvetica;fontSize=12;fontColor=default;" parent="1" vertex="1">
          <mxGeometry x="398" y="48" width="91" height="26" as="geometry" />
        </mxCell>
        <mxCell id="vXGEJdT2jLosxkehv7pn-85" style="edgeStyle=orthogonalEdgeStyle;rounded=0;orthogonalLoop=1;jettySize=auto;html=1;fontFamily=Helvetica;fontSize=12;fontColor=default;strokeColor=#FFFFFF;strokeWidth=3;" parent="1" edge="1">
          <mxGeometry relative="1" as="geometry">
            <mxPoint x="480.08285714285734" y="150.14285714285722" as="targetPoint" />
            <Array as="points">
              <mxPoint x="559.94" y="150" />
            </Array>
            <mxPoint x="559.9988235294118" y="62" as="sourcePoint" />
          </mxGeometry>
        </mxCell>
        <mxCell id="vXGEJdT2jLosxkehv7pn-63" value="&lt;font color=&quot;#ffffff&quot;&gt;Activities&lt;/font&gt;" style="text;html=1;align=center;verticalAlign=middle;resizable=0;points=[];autosize=1;strokeColor=none;fillColor=none;fontFamily=Helvetica;fontSize=12;fontColor=default;" parent="1" vertex="1">
          <mxGeometry x="533" y="44" width="65" height="26" as="geometry" />
        </mxCell>
        <mxCell id="vXGEJdT2jLosxkehv7pn-82" style="edgeStyle=orthogonalEdgeStyle;rounded=0;orthogonalLoop=1;jettySize=auto;html=1;entryX=0;entryY=0.5;entryDx=0;entryDy=0;fontFamily=Helvetica;fontSize=12;fontColor=default;strokeColor=#FFFFFF;strokeWidth=3;" parent="1" source="vXGEJdT2jLosxkehv7pn-60" target="vXGEJdT2jLosxkehv7pn-34" edge="1">
          <mxGeometry relative="1" as="geometry">
            <Array as="points">
              <mxPoint x="217" y="150" />
            </Array>
          </mxGeometry>
        </mxCell>
        <mxCell id="vXGEJdT2jLosxkehv7pn-60" value="Destination&amp;nbsp;" style="text;html=1;align=center;verticalAlign=middle;resizable=0;points=[];autosize=1;strokeColor=none;fillColor=none;fontFamily=Helvetica;fontSize=12;fontColor=#FFFFFF;" parent="1" vertex="1">
          <mxGeometry x="176" y="48" width="81" height="26" as="geometry" />
        </mxCell>
        <mxCell id="vXGEJdT2jLosxkehv7pn-70" style="edgeStyle=orthogonalEdgeStyle;rounded=0;orthogonalLoop=1;jettySize=auto;html=1;exitX=0.5;exitY=1;exitDx=0;exitDy=0;entryX=1;entryY=0;entryDx=0;entryDy=67.5;entryPerimeter=0;fontFamily=Helvetica;fontSize=12;fontColor=default;strokeColor=#FFFFFF;strokeWidth=3;" parent="1" source="vXGEJdT2jLosxkehv7pn-42" target="vXGEJdT2jLosxkehv7pn-44" edge="1">
          <mxGeometry relative="1" as="geometry" />
        </mxCell>
        <mxCell id="vXGEJdT2jLosxkehv7pn-71" style="edgeStyle=orthogonalEdgeStyle;rounded=0;orthogonalLoop=1;jettySize=auto;html=1;entryX=1.025;entryY=0.65;entryDx=0;entryDy=0;entryPerimeter=0;fontFamily=Helvetica;fontSize=12;fontColor=default;strokeColor=#FFFFFF;strokeWidth=3;" parent="1" source="vXGEJdT2jLosxkehv7pn-45" target="vXGEJdT2jLosxkehv7pn-47" edge="1">
          <mxGeometry relative="1" as="geometry">
            <Array as="points">
              <mxPoint x="771" y="1069" />
            </Array>
          </mxGeometry>
        </mxCell>
        <mxCell id="vXGEJdT2jLosxkehv7pn-81" style="edgeStyle=orthogonalEdgeStyle;rounded=0;orthogonalLoop=1;jettySize=auto;html=1;exitX=0.5;exitY=1;exitDx=0;exitDy=0;entryX=0;entryY=0;entryDx=0;entryDy=32.5;entryPerimeter=0;fontFamily=Helvetica;fontSize=12;fontColor=default;strokeColor=#FFFFFF;strokeWidth=3;" parent="1" source="vXGEJdT2jLosxkehv7pn-46" target="vXGEJdT2jLosxkehv7pn-36" edge="1">
          <mxGeometry relative="1" as="geometry">
            <Array as="points">
              <mxPoint x="340" y="1130" />
              <mxPoint x="86" y="1130" />
              <mxPoint x="86" y="379" />
            </Array>
          </mxGeometry>
        </mxCell>
        <mxCell id="vXGEJdT2jLosxkehv7pn-86" value="&lt;font color=&quot;#ffffff&quot;&gt;Preference&lt;/font&gt; &lt;font color=&quot;#ffffff&quot;&gt;Score&lt;/font&gt;" style="text;html=1;align=center;verticalAlign=middle;resizable=0;points=[];autosize=1;strokeColor=none;fillColor=none;fontFamily=Helvetica;fontSize=12;fontColor=default;" parent="1" vertex="1">
          <mxGeometry x="379" y="594" width="111" height="26" as="geometry" />
        </mxCell>
        <mxCell id="vXGEJdT2jLosxkehv7pn-87" value="&lt;font color=&quot;#ffffff&quot;&gt;Feedback&lt;/font&gt;" style="text;html=1;align=center;verticalAlign=middle;resizable=0;points=[];autosize=1;strokeColor=none;fillColor=none;fontFamily=Helvetica;fontSize=12;fontColor=default;" parent="1" vertex="1">
          <mxGeometry x="128" y="1102" width="71" height="26" as="geometry" />
        </mxCell>
        <mxCell id="vXGEJdT2jLosxkehv7pn-92" value="" style="endArrow=none;dashed=1;html=1;dashPattern=1 3;strokeWidth=3;rounded=0;fontFamily=Helvetica;fontSize=12;fontColor=default;strokeColor=#FFFFFF;" parent="1" edge="1">
          <mxGeometry width="50" height="50" relative="1" as="geometry">
            <mxPoint x="139" y="594" as="sourcePoint" />
            <mxPoint x="699" y="450" as="targetPoint" />
            <Array as="points">
              <mxPoint x="139" y="450" />
            </Array>
          </mxGeometry>
        </mxCell>
        <mxCell id="vXGEJdT2jLosxkehv7pn-93" value="" style="endArrow=none;dashed=1;html=1;dashPattern=1 3;strokeWidth=3;rounded=0;fontFamily=Helvetica;fontSize=12;fontColor=default;strokeColor=#FFFFFF;" parent="1" edge="1">
          <mxGeometry width="50" height="50" relative="1" as="geometry">
            <mxPoint x="142" y="592" as="sourcePoint" />
            <mxPoint x="692" y="452" as="targetPoint" />
            <Array as="points">
              <mxPoint x="692" y="592" />
            </Array>
          </mxGeometry>
        </mxCell>
        <mxCell id="YkPtpskG_U6--u6SuKd9-4" style="edgeStyle=orthogonalEdgeStyle;rounded=0;orthogonalLoop=1;jettySize=auto;html=1;fontFamily=Helvetica;fontSize=12;fontColor=default;strokeColor=#FFFFFF;strokeWidth=3;" edge="1" parent="1" source="YkPtpskG_U6--u6SuKd9-3">
          <mxGeometry relative="1" as="geometry">
            <mxPoint x="475.3529411764707" y="173.3529411764706" as="targetPoint" />
            <Array as="points">
              <mxPoint x="628" y="173" />
            </Array>
          </mxGeometry>
        </mxCell>
        <mxCell id="YkPtpskG_U6--u6SuKd9-3" value="&lt;font color=&quot;#ffffff&quot;&gt;Dates&lt;/font&gt;" style="text;html=1;align=center;verticalAlign=middle;resizable=0;points=[];autosize=1;strokeColor=none;fillColor=none;fontFamily=Helvetica;fontSize=12;fontColor=default;" vertex="1" parent="1">
          <mxGeometry x="621" y="44" width="49" height="26" as="geometry" />
        </mxCell>
      </root>
    </mxGraphModel>
  </diagram>
</mxfile>
